<?xml version="1.0" encoding="iso-8859-1"?>
<!-- Generator: Adobe Illustrator 19.0.0, SVG Export Plug-In . SVG Version: 6.00 Build 0)  -->
<svg version="1.1" id="Capa_1" xmlns="http://www.w3.org/2000/svg" xmlns:xlink="http://www.w3.org/1999/xlink" x="0px" y="0px"
	 width="100%" height="100%" xml:space="preserve">
<g>
	<g>
		<path d="M501.975,165.11c-4.221-4.221-6.546-9.834-6.546-15.805v-33.891c0-3.789-2.141-7.252-5.53-8.945l-18.093-9.041
			c-2.951-1.475-5.001-4.054-5.772-7.261c-0.771-3.208-0.117-6.437,1.84-9.09c3.272-4.436,2.981-10.395-0.708-14.49
			c-3.691-4.095-9.587-5.006-14.341-2.208l-6.386,3.757c-0.745,0.439-1.473,0.677-2.155,0.802h-2.359
			c-0.296-0.054-0.565-0.119-0.781-0.187c-1.04-0.322-2.944-1.206-4.02-3.502c-4.637-9.903-4.153-21.479,1.292-30.962l2.501-4.354
			c4.132-7.194,3.43-16.011-1.79-22.461c-5.221-6.45-13.697-8.974-21.597-6.434L357.83,20.252c-2.582,0.831-5.265,1.252-7.973,1.252
			h-96.164c-55.838,0-108.805,17.79-153.177,51.446c-4.4,3.338-5.262,9.61-1.925,14.011c3.338,4.399,9.609,5.261,14.011,1.925
			c40.865-30.997,89.654-47.382,141.09-47.382h96.164c4.791,0,9.534-0.744,14.099-2.213l59.518-19.151l-1.281,2.231l-33.336,23.117
			c-8.75,6.068-12.35,16.557-9.17,26.72c3.179,10.162,12.113,16.73,22.762,16.73h38.328c1.659,0.144,3.325,0.138,4.977-0.029
			c0.085,1.981,0.361,3.969,0.834,5.934c2.144,8.914,8.076,16.379,16.279,20.478l2.236,1.117l-99.595,62.981
			c-7.306,4.621-10.599,13.304-8.193,21.607c2.404,8.303,9.828,13.882,18.474,13.882h61.7c9.938,0,19.89-2.356,28.774-6.814
			l24.12-12.103c-0.653,1.246-1.502,2.415-2.548,3.461l-31.545,31.545c-18.331,18.332-44.367,25.844-69.646,20.093l-68.736-15.637
			c-27.238-6.195-55.288,1.898-75.036,21.647l-10.146,10.146c-22.88,22.881-53.275,36.43-85.589,38.152l-127.134,6.775v-36.976
			c0-47.575,14.206-93.354,41.085-132.382c3.132-4.549,1.984-10.775-2.564-13.908c-4.549-3.131-10.775-1.985-13.908,2.564
			C15.427,173.851,0,223.552,0,275.197v47.522c0,2.744,1.128,5.368,3.12,7.257c1.862,1.766,4.326,2.743,6.879,2.743
			c0.178,0,0.355-0.005,0.533-0.015l137.665-7.336c28.176-1.502,55.083-10.809,77.936-26.666v85.232
			c0,0.828,0.112,1.628,0.302,2.398c-0.556,0.561-1.099,1.137-1.624,1.732c-7.927,8.979-11.621,20.948-10.136,32.834l3.535,28.278
			c0.441,3.525,2.685,6.422,5.732,7.832v22.929c0,17.646,14.355,32.001,32.001,32.001s32.001-14.355,32.001-32.001v-22.762
			c1.457-0.601,2.742-1.538,3.761-2.72c0.003,0.001,0.006,0.004,0.009,0.005l68.754-79.866c3.603-4.186,3.131-10.5-1.055-14.104
			c-4.188-3.604-10.5-3.129-14.104,1.055l-47.408,55.071c0.192-8.962-2.505-17.761-7.689-25.071l99.227-119.609
			c11.454,1.704,22.926,1.304,33.932-1.069l-27.369,31.792c-3.603,4.186-3.131,10.5,1.055,14.104c1.889,1.625,4.21,2.421,6.52,2.421
			c2.812,0,5.605-1.179,7.584-3.476l69.929-81.233l20.884-20.884C515.341,200.226,515.341,178.477,501.975,165.11z M402.448,68.936
			c-2.461,0-3.358-1.691-3.673-2.7c-0.315-1.009-0.543-2.91,1.479-4.313l13.735-9.524c0.144,5.595,1.175,11.175,3.078,16.538
			H402.448z M457.29,190.216c-6.115,3.068-12.963,4.69-19.805,4.69l-59.051-0.001l96.992-61.335v15.734
			c0,9.954,3.413,19.382,9.68,26.952L457.29,190.216z M246.134,282.101h0.001c0.243-0.239,0.489-0.473,0.73-0.714l10.146-10.146
			c2.83-2.83,5.888-5.339,9.123-7.519v111.445c-3.245-0.801-6.598-1.23-10-1.23s-6.755,0.429-10,1.23V282.101z M267.945,479.938
			c0,6.617-5.383,12-12,12s-12-5.383-12-12v-22.001h24.001V479.938z M277.748,418.419l-2.44,19.519h-38.345l-2.44-19.519
			c-0.774-6.196,1.151-12.436,5.284-17.117c4.132-4.682,10.084-7.366,16.329-7.366c6.244,0,12.195,2.685,16.327,7.365
			C276.596,405.984,278.523,412.223,277.748,418.419z M286.136,365.135V254.999c8.821-2.058,18.138-2.138,27.334-0.046
			l53.901,12.261L286.136,365.135z"/>
	</g>
</g>
<g>
	<g>
		<path d="M88.459,95.818c-3.899-3.912-10.232-3.921-14.142-0.021c-0.36,0.358-0.718,0.719-1.074,1.08
			c-3.883,3.927-3.847,10.259,0.081,14.142c1.949,1.928,4.489,2.89,7.03,2.89c2.578,0,5.155-0.991,7.111-2.97l0.973-0.979
			C92.349,106.061,92.358,99.729,88.459,95.818z"/>
	</g>
</g>
<g>
	<g>
		<path d="M290.659,69.651c-1.705-4.479-6.348-7.121-11.069-6.295l-77.324,13.512c-37.464,6.547-71.537,26.218-95.941,55.389
			c-4.257,5.087-5.157,11.98-2.35,17.99c2.807,6.011,8.672,9.744,15.306,9.744h35.937c3.141,0,6.214-0.873,8.887-2.525
			l122.468-75.753C290.649,79.191,292.363,74.132,290.659,69.651z M154.335,139.99h-28.19c20.974-22.746,48.979-38.075,79.564-43.42
			l26.233-4.584L154.335,139.99z"/>
	</g>
</g>
<g>
	<g>
		<path d="M124.995,185.445c-4.46-5.696-11.932-7.619-18.59-4.796l-20.737,8.804c-25.817,10.959-44.133,35.043-47.8,62.85
			c-0.539,4.084,0.71,8.202,3.425,11.299c2.715,3.096,6.635,4.872,10.753,4.872c15.833,0,30.957-7.563,40.455-20.23l32.694-43.604
			C129.536,198.854,129.455,191.139,124.995,185.445z M76.499,236.245c-4.299,5.733-10.504,9.736-17.37,11.386
			c4.647-17.677,17.321-32.537,34.355-39.769l6.304-2.677L76.499,236.245z"/>
	</g>
</g>
<g>
	<g>
		<path d="M279.004,175.638c-4.057-8.518-13.003-13.007-22.258-11.17c-52.109,10.352-99.444,35.742-136.889,73.428l-2.562,2.578
			c-5.267,5.3-6.122,13.391-2.081,19.676c2.989,4.649,7.989,7.271,13.227,7.271c1.842,0,3.714-0.324,5.536-0.998l104.255-38.548
			c2.158-0.799,4.15-1.948,5.924-3.42l29.495-24.499C280.91,193.929,283.06,184.156,279.004,175.638z M260.873,184.571
			l-29.576,24.544l-85.147,31.482c32.492-28.594,71.756-48.021,114.492-56.511c0.087-0.018,0.149-0.023,0.189-0.026
			c0.081,0.089,0.163,0.261,0.181,0.38C260.986,184.47,260.942,184.514,260.873,184.571z"/>
	</g>
</g>
<g>
	<g>
		<path d="M373.078,106.78c-2.321-7.593-9.215-12.694-17.155-12.694h-22.08c-17.031,0-33.578,4.91-47.853,14.201l-16.807,10.938
			c-6.712,4.368-9.69,12.461-7.412,20.139s9.189,12.835,17.198,12.835h22.649c17.545-0.001,34.505-5.186,49.052-14.995
			l15.283-10.308C372.536,122.458,375.399,114.373,373.078,106.78z M339.487,120.623c-11.229,7.572-24.324,11.575-37.867,11.575
			h-15.701l10.983-7.148c11.02-7.172,23.795-10.963,36.942-10.963h15.334L339.487,120.623z"/>
	</g>
</g>
<g>
	<g>
		<path d="M385.476,330.23c-4.184-3.607-10.499-3.137-14.104,1.043l-0.55,0.638c-3.606,4.184-3.14,10.498,1.043,14.104
			c1.89,1.629,4.213,2.427,6.525,2.427c2.809,0,5.602-1.177,7.578-3.47l0.55-0.638C390.125,340.151,389.658,333.836,385.476,330.23z
			"/>
	</g>
</g>
<g>
</g>
<g>
</g>
<g>
</g>
<g>
</g>
<g>
</g>
<g>
</g>
<g>
</g>
<g>
</g>
<g>
</g>
<g>
</g>
<g>
</g>
<g>
</g>
<g>
</g>
<g>
</g>
<g>
</g>
</svg>
